<?xml version="1.0" standalone="no"?>
<!DOCTYPE svg PUBLIC "-//W3C//DTD SVG 20010904//EN"
 "http://www.w3.org/TR/2001/REC-SVG-20010904/DTD/svg10.dtd">
<svg version="1.0" xmlns="http://www.w3.org/2000/svg"
 width="300.000000pt" height="100.000000pt" viewBox="0 0 300.000000 100.000000"
 preserveAspectRatio="xMidYMid meet">

<g transform="translate(0.000000,100.000000) scale(0.100000,-0.100000)"
fill="#cc0000" stroke="none">
<path d="M1783 874 c-10 -4 -9 -14 3 -42 20 -48 18 -47 63 -32 60 19 87 8 116
-50 l25 -50 -215 0 c-226 0 -226 0 -209 -44 5 -14 33 -16 210 -16 l204 0 0
-39 0 -39 -49 1 c-34 2 -55 -3 -68 -15 -18 -17 -22 -17 -71 2 -72 27 -124 26
-159 -4 -25 -22 -28 -31 -28 -83 1 -73 31 -130 107 -198 66 -60 96 -74 109
-54 14 23 11 35 -15 47 -133 60 -167 242 -45 242 47 0 53 -9 34 -54 -8 -19
-15 -37 -15 -40 0 -5 72 -48 75 -44 1 2 13 23 25 48 29 58 58 90 83 90 19 0
19 -6 15 -141 l-4 -140 25 -13 c73 -37 68 -50 68 182 0 140 4 215 12 230 11
20 19 22 110 22 75 0 101 -4 111 -15 16 -19 7 -68 -21 -106 -18 -26 -25 -29
-54 -23 -28 5 -35 2 -45 -16 -10 -18 -5 -32 32 -97 85 -149 202 -224 321 -209
28 4 54 9 58 12 8 4 -8 62 -20 76 -3 4 -32 1 -64 -7 -41 -10 -67 -11 -94 -3
-36 10 -133 91 -133 112 0 7 16 28 36 47 20 18 42 47 51 63 17 33 19 99 4 139
l-11 28 153 -3 152 -3 3 -42 3 -43 -43 20 c-118 54 -224 -11 -199 -123 22 -96
117 -151 214 -124 l29 8 -7 -55 -7 -55 41 -20 c22 -12 44 -21 48 -21 5 0 9 93
9 208 0 235 4 252 59 252 39 0 39 -1 25 34 l-10 26 -389 0 -389 0 -36 63 c-45
80 -89 110 -164 114 -32 1 -63 0 -69 -3z m873 -365 c25 -21 16 -59 -25 -100
-40 -41 -85 -51 -109 -27 -16 16 -15 88 1 109 30 39 97 48 133 18z"/>
<path d="M205 723 c-79 -19 -92 -121 -25 -196 28 -32 28 -32 9 -56 -56 -69 23
-186 135 -198 36 -5 54 0 90 21 l46 27 0 -50 c0 -49 1 -51 40 -71 21 -11 41
-20 44 -20 2 0 5 99 7 220 3 182 7 222 19 230 8 5 47 10 86 10 l71 0 7 -61
c12 -121 11 -126 -34 -133 -30 -5 -40 -11 -40 -25 0 -24 51 -93 88 -120 41
-29 60 -19 64 32 l3 42 62 3 c62 3 63 2 99 -38 68 -75 104 -77 104 -4 l0 44
81 0 81 0 -7 -79 -7 -80 41 -20 c22 -12 44 -21 48 -21 4 0 8 93 9 208 0 235 4
252 59 252 39 0 39 -1 25 34 l-10 26 -515 0 c-283 0 -515 -2 -515 -4 0 -3 4
-16 10 -30 8 -21 16 -26 44 -26 l34 0 7 -74 c5 -63 4 -80 -14 -113 -41 -81
-130 -130 -187 -104 -52 23 -9 85 68 97 42 7 45 12 23 53 -13 27 -17 28 -57
21 -36 -7 -46 -5 -65 13 -33 30 -29 35 22 29 60 -6 95 16 95 61 0 42 -24 75
-66 93 -34 14 -44 15 -79 7z m85 -72 c0 -22 -35 -51 -62 -51 -24 0 -23 25 2
50 26 26 60 26 60 1z m710 -83 c0 -40 3 -83 6 -95 7 -26 -13 -30 -118 -25
l-68 4 0 74 c0 109 4 114 100 114 l80 0 0 -72z m238 -32 c2 -87 1 -98 -13 -92
-9 3 -43 6 -76 6 l-59 0 0 83 c0 53 5 88 12 95 8 8 35 12 73 10 l60 -3 3 -99z"/>
</g>
</svg>
